<svg xmlns="http://www.w3.org/2000/svg" xmlns:xlink="http://www.w3.org/1999/xlink" viewBox="0 0 300 300"><defs><style>.cls-1,.cls-5{fill:none;}.cls-2{fill:#fff;}.cls-3{fill:#10f;}.cls-4{fill:#cf0;}.cls-5{stroke:#10f;stroke-miterlimit:10;stroke-width:6.5px;}.cls-6{clip-path:url(#clip-path);}.cls-7{clip-path:url(#clip-path-2);}</style><clipPath id="clip-path"><circle class="cls-1" cx="470" cy="150" r="150"/></clipPath><clipPath id="clip-path-2"><rect class="cls-1" x="320" width="300" height="300"/></clipPath></defs><g id="Layer_2_copy" data-name="Layer 2 copy"><path class="cls-2" d="M291.21,124.39l.93,45.5c1.27,64.32-61.27,117.45-139.29,119S10.1,240,8.78,175.61l-.93-45.5C6.59,65.79,69.12,12.66,147.16,11.07S289.9,60,291.21,124.39Zm-1.36,26.45-.54-26.41C288,61.46,224.58,11.39,147.2,13S8.51,67.15,9.75,130.08v0c0,1.17.07,2.35.14,3.52l0,.5c.07,1.1.16,2.18.27,3.28,0,.05,0,.1,0,.16.25,2.43.59,4.83,1,7.22a.78.78,0,0,1,0,.14c.46,2.57,1,5.11,1.67,7.62h0c13.69,51.43,69.83,89.55,136.77,89v.08l4.36-.09c45.46-1.88,81-33.07,80.26-70.15A57.09,57.09,0,0,0,230,150.81c-11.9,26.71-42.58,48.82-79,49.57-37.32.76-69.55-21.18-81.88-48.31a59.28,59.28,0,0,1-5.35-23.36c-.79-38.43,36-70.19,82.08-72.09h0l4.4-.09c67.55-.54,124.6,37.94,138.6,90.37h0C289.25,148.2,289.56,149.52,289.85,150.84Zm.42,19a94.85,94.85,0,0,0-3.18-22.43C273.4,96,217.28,57.89,150.34,58.42l-4.37.09c-45.44,1.88-81,33.08-80.25,70.15A56.87,56.87,0,0,0,70,149.21c11.89-26.74,42.55-49.28,78.95-50a91.59,91.59,0,0,1,49.3,13.28C212.34,121,223.48,132.87,230,146l.35.74c.18.39.38.79.56,1.18a59.4,59.4,0,0,1,5.36,23.42c.79,38.45-35.95,70.19-82.08,72.1h-4.41C82.2,244,25.13,205.52,11.14,153.09h0c-.34-1.3-.65-2.62-.95-3.94l.54,26.41c1.29,63,64.74,113,142.12,111.46S291.53,232.83,290.27,169.88ZM229,148.38c-12.13-26.27-43.54-48-80-47.28s-66.92,23.77-77.95,50.51c12.11,26.26,43.52,47.61,80,46.86S217.92,175.11,229,148.38Z"/><path class="cls-3" d="M289.31,124.43l.54,26.41c-.29-1.32-.6-2.64-.94-4h0c-14-52.43-71-90.91-138.6-90.37l-4.4.09h0C99.76,58.52,63,90.28,63.8,128.71a59.28,59.28,0,0,0,5.35,23.36c12.33,27.13,44.56,49.07,81.88,48.31,36.38-.75,67.06-22.86,79-49.57a57.09,57.09,0,0,1,4.32,20.59c.76,37.08-34.8,68.27-80.26,70.15l-4.36.09v-.08c-66.94.53-123.08-37.59-136.77-89L9.76,130.11v0C8.51,67.15,69.84,14.55,147.2,13S288,61.46,289.31,124.43Z"/><path class="cls-4" d="M287.09,147.45a94.85,94.85,0,0,1,3.18,22.43c1.26,63-60.07,115.56-137.44,117.14S12,238.53,10.71,175.56l-.54-26.41c.3,1.32.61,2.64.95,3.94h0c14,52.43,71.06,90.9,138.6,90.36h4.41c46.13-1.91,82.87-33.65,82.08-72.1a59.4,59.4,0,0,0-5.36-23.42c-.18-.39-.38-.79-.56-1.18L230,146c-6.48-13.13-17.62-25-31.68-33.53A91.59,91.59,0,0,0,149,99.19c-36.4.74-67.06,23.28-78.95,50a56.87,56.87,0,0,1-4.31-20.55C65,91.59,100.53,60.39,146,58.51l4.37-.09C217.28,57.89,273.4,96,287.09,147.45Z"/><path class="cls-2" d="M9.76,130.11l3.17,22.43c-.67-2.5-1.22-5-1.69-7.61a.78.78,0,0,0,0-.14Z"/><path class="cls-5" d="M147.16,11.07c-78,1.59-140.57,54.72-139.31,119l.93,45.5c1.32,64.36,66,114.92,144.07,113.32s140.56-54.72,139.29-119l-.93-45.5C289.9,60,225.22,9.47,147.16,11.07Z"/><path class="cls-5" d="M152.83,287C75.45,288.6,12,238.53,10.71,175.56l-.54-26.41c.3,1.32.61,2.64.95,3.94h0c14,52.43,71.06,90.9,138.6,90.36h4.41c46.13-1.91,82.87-33.65,82.08-72.1a59.4,59.4,0,0,0-5.36-23.42c-.18-.39-.38-.79-.56-1.18L230,146c-6.48-13.13-17.62-25-31.68-33.53A91.59,91.59,0,0,0,149,99.19c-36.4.74-67.06,23.28-78.95,50a56.87,56.87,0,0,1-4.31-20.55C65,91.59,100.53,60.39,146,58.51l4.37-.09c66.94-.53,123.06,37.6,136.75,89a94.85,94.85,0,0,1,3.18,22.43C291.53,232.83,230.2,285.44,152.83,287Z"/><path class="cls-5" d="M229,148.38c-11,26.73-41.54,49.35-78,50.09s-67.84-20.6-79.95-46.86c11-26.74,41.52-49.77,78-50.51S216.83,122.11,229,148.38Z"/><path class="cls-5" d="M11.24,144.93c.47,2.57,1,5.11,1.69,7.61L9.76,130.11"/><line class="cls-5" x1="9.76" y1="130.11" x2="11.22" y2="144.79"/><path class="cls-5" d="M11.22,144.79c-.42-2.39-.76-4.79-1-7.22,0-.06,0-.11,0-.16-.11-1.1-.2-2.18-.27-3.28l0-.5c-.07-1.17-.12-2.35-.14-3.52"/><path class="cls-5" d="M11.22,144.79a.78.78,0,0,1,0,.14"/><path class="cls-5" d="M9.76,130.11v0C8.51,67.15,69.84,14.55,147.2,13S288,61.46,289.31,124.43l.54,26.41c-.29-1.32-.6-2.64-.94-4h0c-14-52.43-71-90.91-138.6-90.37l-4.4.09h0C99.76,58.52,63,90.28,63.8,128.71a59.28,59.28,0,0,0,5.35,23.36c12.33,27.13,44.56,49.07,81.88,48.31,36.38-.75,67.06-22.86,79-49.57a57.09,57.09,0,0,1,4.32,20.59c.76,37.08-34.8,68.27-80.26,70.15l-4.36.09v-.08c-66.94.53-123.08-37.59-136.77-89h0c-.66-2.51-1.21-5.05-1.67-7.62"/><circle class="cls-3" cx="150" cy="150" r="32.58"/></g><g id="Layer_7" data-name="Layer 7"><g class="cls-6"><g class="cls-7"><image width="6000" height="4000" transform="translate(217.37) scale(0.09 0.09)" xlink:href="../../../../../../Downloads/pexels-nicole-avagliano-2312040.jpg"/></g></g></g></svg>