<svg xmlns="http://www.w3.org/2000/svg" viewBox="0 0 300 300"><defs><style>.cls-1{fill:#07007b;}.cls-2{fill:#fff;}.cls-3,.cls-5{fill:#10f;}.cls-4{fill:none;stroke-width:6.5px;}.cls-4,.cls-5{stroke:#fff;stroke-miterlimit:10;}.cls-5{stroke-width:8px;}</style></defs><g id="Layer_3_copy" data-name="Layer 3 copy"><path class="cls-1" d="M236.35,173.28a59.84,59.84,0,0,0-4.91-23.69c-.17-.41-.36-.81-.54-1.21l-.35-.75c-6.25-13.35-17.21-25.55-31.19-34.41A92.39,92.39,0,0,0,150,98.83c-36.67,0-68,22.07-80.53,48.74a57.54,57.54,0,0,1-3.91-20.78c0-37.34,36.44-68,82.25-69h4.39c67.4.85,123.13,40.4,135.86,92.46a95,95,0,0,1,2.73,22.65C290.77,236.32,227.93,288,150,288S9.21,236.31,9.21,172.88V146.27c.27,1.34.55,2.68.87,4h0c13,53.07,69.68,93,137.7,93.9h4.43C198.71,243.21,236.35,212,236.35,173.28Z"/><path class="cls-2" d="M150,198.83c36.69,0,67.87-22.14,79.53-48.83-11.66-26.7-42.85-49.25-79.53-49.25S82.14,123.3,70.47,150C82.13,176.69,113.31,198.83,150,198.83Zm86.35-25.55c0,38.72-37.64,69.93-84.12,70.89H147.8c-68-.85-124.69-40.83-137.7-93.9h0c-.32-1.32-.6-2.66-.87-4v26.61C9.21,236.31,72.06,288,150,288s140.77-51.71,140.79-115.11a95,95,0,0,0-2.73-22.65C275.33,98.21,219.6,58.66,152.2,57.81h-4.39c-45.81,1-82.25,31.64-82.25,69a57.54,57.54,0,0,0,3.91,20.78C82,120.9,113.33,98.83,150,98.83a92.39,92.39,0,0,1,49.36,14.39c14,8.86,24.94,21.06,31.19,34.41l.35.75c.18.4.37.8.54,1.21A59.84,59.84,0,0,1,236.35,173.28Zm-227-42.14c0,1.1.1,2.2.19,3.3a.91.91,0,0,1,0,.17q.3,3.67.87,7.28V142c.41,2.6.92,5.16,1.54,7.7h0c6.36,26,23.47,48.95,47.42,65.47s54.74,26.63,88.45,27h4.38c45.81-1,82.25-31.63,82.25-69a57.3,57.3,0,0,0-3.92-20.82C218,179.11,186.65,200.74,150,200.74c-37.58,0-69.58-22.75-81.45-50.33a59.64,59.64,0,0,1-4.91-23.62c0-38.72,37.65-69.92,84.14-70.89h4.44c68,.85,124.67,40.76,137.67,93.84h0c.33,1.32.62,2.66.88,4V127.13C290.79,63.7,228,12,150,12S9.25,63.66,9.21,127.06v0c0,1.19,0,2.37.07,3.54Zm283.4-4V173c-.06,64.78-64.11,117-142.71,117S7.3,237.7,7.3,172.88V127.05c0-64.79,64.11-117,142.7-117S292.71,62.3,292.71,127.13Z"/><path class="cls-3" d="M234.44,173.28c0,37.35-36.44,68-82.25,69h-4.38c-33.71-.42-64.49-10.54-88.45-27S18.3,175.77,11.94,149.74L9.21,127.08v0C9.25,63.66,72.09,12,150,12S290.79,63.7,290.79,127.13v26.59c-.26-1.33-.55-2.67-.88-4h0c-13-53.08-69.66-93-137.67-93.84h-4.44c-46.49,1-84.14,32.17-84.14,70.89a59.64,59.64,0,0,0,4.91,23.62C80.42,178,112.42,200.74,150,200.74c36.65,0,68-21.63,80.52-48.28A57.3,57.3,0,0,1,234.44,173.28Z"/><path class="cls-2" d="M9.21,127.08l2.73,22.66c-.62-2.58-1.15-5.2-1.56-7.85Z"/><path class="cls-4" d="M150,10.05c-78.59,0-142.65,52.21-142.7,117v45.83C7.3,237.7,71.37,289.94,150,289.94s142.65-52.21,142.71-117V127.13C292.71,62.3,228.63,10.05,150,10.05Z"/><path class="cls-4" d="M147.8,244.17h4.43c46.48-1,84.12-32.17,84.12-70.89a59.84,59.84,0,0,0-4.91-23.69c-.17-.41-.36-.81-.54-1.21l-.35-.75c-6.25-13.35-17.21-25.55-31.19-34.41A92.39,92.39,0,0,0,150,98.83c-36.67,0-68,22.07-80.53,48.74a57.54,57.54,0,0,1-3.91-20.78c0-37.34,36.44-68,82.25-69h4.39c67.4.85,123.13,40.4,135.86,92.46a95,95,0,0,1,2.73,22.65C290.77,236.32,227.93,288,150,288S9.21,236.31,9.21,172.88V146.27c.27,1.34.55,2.68.87,4h0C23.11,203.34,79.78,243.32,147.8,244.17Z"/><path class="cls-4" d="M229.53,150c-11.66,26.69-42.84,48.83-79.53,48.83S82.13,176.69,70.47,150c11.67-26.7,42.85-49.25,79.53-49.25S217.87,123.3,229.53,150Z"/><path class="cls-4" d="M9.21,127.08l1.17,14.81c.41,2.65.94,5.27,1.56,7.85L9.21,127.08"/><path class="cls-4" d="M9.21,127.08v0C9.25,63.66,72.09,12,150,12S290.79,63.7,290.79,127.13v26.59c-.26-1.33-.55-2.67-.88-4h0c-13-53.08-69.66-93-137.67-93.84h-4.44c-46.49,1-84.14,32.17-84.14,70.89a59.64,59.64,0,0,0,4.91,23.62C80.42,178,112.42,200.74,150,200.74c36.65,0,68-21.63,80.52-48.28a57.3,57.3,0,0,1,3.92,20.82c0,37.35-36.44,68-82.25,69h-4.38c-33.71-.42-64.49-10.54-88.45-27S18.3,175.77,11.94,149.74h0c-.62-2.54-1.13-5.1-1.54-7.7v-.15q-.57-3.6-.87-7.28a.91.91,0,0,0,0-.17c-.09-1.1-.14-2.2-.19-3.3l0-.52c0-1.17-.07-2.35-.07-3.54"/><circle class="cls-5" cx="150" cy="150" r="32.81"/></g></svg>